# xmcd
#
# Track frame offsets:
#	150
#	12147
#	42104
#	65795
#	86705
#	112910
#	133401
#	153179
#	182329
#	193658
#	216315
#	239236
#	259259
#	284741
#	298330
#
# Disc length: 4375 seconds
#
# Revision: 0
# Processed by: cddbd v1.4b42PL1 Copyright (c) Steve Scherf et al.
# Submitted via: EasyCDDAExtractor 4.5.0.2
#
DISCID=ee11150f
DTITLE=King Come - ballads
DYEAR=1900
DGENRE=Ballad
TTITLE0=Can't Let Go (Directors Cut)
TTITLE1=Twilight Cruiser
TTITLE2=What Love Can Be
TTITLE3=Friends
TTITLE4=Seen Enough
TTITLE5=Just Like A Wild Rose
TTITLE6=Janine
TTITLE7=Can't Let Go
TTITLE8=And I Love Her
TTITLE9=Glove Of Stone
TTITLE10=Gonna Try
TTITLE11=Gotta Go (can't wage a war)
TTITLE12=Should I
TTITLE13=Rather Be On My Own
TTITLE14=Can't Fake Affection
EXTD=
EXTT0=
EXTT1=
EXTT2=
EXTT3=
EXTT4=
EXTT5=
EXTT6=
EXTT7=
EXTT8=
EXTT9=
EXTT10=
EXTT11=
EXTT12=
EXTT13=
EXTT14=
PLAYORDER=
